<mxfile host="app.diagrams.net" agent="Mozilla/5.0 (Windows NT 10.0; Win64; x64) AppleWebKit/537.36 (KHTML, like Gecko) Chrome/129.0.0.0 Safari/537.36" version="24.7.17">
  <diagram name="ページ1" id="cvW7JD9fnjbFGT38sK29">
    <mxGraphModel dx="758" dy="1675" grid="1" gridSize="10" guides="1" tooltips="1" connect="1" arrows="1" fold="1" page="1" pageScale="1" pageWidth="827" pageHeight="1169" math="0" shadow="0">
      <root>
        <mxCell id="0" />
        <mxCell id="1" parent="0" />
        <mxCell id="iPjWZaMH8rYA2JW9j5OT-1" value="" style="sketch=0;outlineConnect=0;fontColor=#232F3E;gradientColor=none;fillColor=#232F3D;strokeColor=none;dashed=0;verticalLabelPosition=bottom;verticalAlign=top;align=center;html=1;fontSize=12;fontStyle=0;aspect=fixed;pointerEvents=1;shape=mxgraph.aws4.user;" vertex="1" parent="1">
          <mxGeometry x="110" y="250" width="78" height="78" as="geometry" />
        </mxCell>
        <mxCell id="iPjWZaMH8rYA2JW9j5OT-2" value="" style="image;html=1;image=img/lib/clip_art/networking/Cloud_Server_128x128.png" vertex="1" parent="1">
          <mxGeometry x="300" y="259" width="80" height="80" as="geometry" />
        </mxCell>
        <mxCell id="iPjWZaMH8rYA2JW9j5OT-4" value="" style="edgeStyle=orthogonalEdgeStyle;html=1;endArrow=block;elbow=vertical;startArrow=block;startFill=1;endFill=1;strokeColor=#545B64;rounded=0;" edge="1" parent="1">
          <mxGeometry width="100" relative="1" as="geometry">
            <mxPoint x="190" y="298.5" as="sourcePoint" />
            <mxPoint x="290" y="298.5" as="targetPoint" />
          </mxGeometry>
        </mxCell>
        <mxCell id="iPjWZaMH8rYA2JW9j5OT-5" value="" style="edgeStyle=orthogonalEdgeStyle;html=1;endArrow=none;elbow=vertical;startArrow=block;startFill=1;strokeColor=#545B64;rounded=0;exitX=0.5;exitY=0;exitDx=0;exitDy=0;" edge="1" parent="1">
          <mxGeometry width="100" relative="1" as="geometry">
            <mxPoint x="594" y="259" as="sourcePoint" />
            <mxPoint x="594.9166666666667" y="178" as="targetPoint" />
            <Array as="points">
              <mxPoint x="594" y="219" />
              <mxPoint x="595" y="219" />
            </Array>
          </mxGeometry>
        </mxCell>
        <mxCell id="iPjWZaMH8rYA2JW9j5OT-6" value="" style="image;html=1;image=img/lib/clip_art/networking/Cloud_Server_128x128.png" vertex="1" parent="1">
          <mxGeometry x="555" y="80" width="80" height="80" as="geometry" />
        </mxCell>
        <mxCell id="iPjWZaMH8rYA2JW9j5OT-7" value="" style="sketch=0;outlineConnect=0;fontColor=#232F3E;gradientColor=none;fillColor=#232F3D;strokeColor=none;dashed=0;verticalLabelPosition=bottom;verticalAlign=top;align=center;html=1;fontSize=12;fontStyle=0;aspect=fixed;pointerEvents=1;shape=mxgraph.aws4.user;" vertex="1" parent="1">
          <mxGeometry x="303" y="-30" width="78" height="78" as="geometry" />
        </mxCell>
        <mxCell id="iPjWZaMH8rYA2JW9j5OT-8" value="" style="edgeStyle=orthogonalEdgeStyle;html=1;endArrow=none;elbow=vertical;startArrow=block;startFill=1;strokeColor=#545B64;rounded=0;" edge="1" parent="1">
          <mxGeometry width="100" relative="1" as="geometry">
            <mxPoint x="341" y="250" as="sourcePoint" />
            <mxPoint x="341.4666666666668" y="60.5" as="targetPoint" />
            <Array as="points">
              <mxPoint x="341.01" y="102" />
              <mxPoint x="341.01" y="102" />
            </Array>
          </mxGeometry>
        </mxCell>
        <mxCell id="iPjWZaMH8rYA2JW9j5OT-9" value="&lt;font style=&quot;font-size: 20px;&quot;&gt;&lt;b&gt;GitHub Actions&lt;/b&gt;&lt;/font&gt;" style="text;html=1;align=center;verticalAlign=middle;whiteSpace=wrap;rounded=0;" vertex="1" parent="1">
          <mxGeometry x="520" y="150" width="150" height="30" as="geometry" />
        </mxCell>
        <mxCell id="iPjWZaMH8rYA2JW9j5OT-10" value="&lt;font style=&quot;font-size: 20px;&quot;&gt;&lt;b&gt;Supabase&lt;/b&gt;&lt;/font&gt;" style="text;html=1;align=center;verticalAlign=middle;whiteSpace=wrap;rounded=0;" vertex="1" parent="1">
          <mxGeometry x="515" y="560" width="150" height="30" as="geometry" />
        </mxCell>
        <mxCell id="iPjWZaMH8rYA2JW9j5OT-11" value="&lt;font style=&quot;font-size: 20px;&quot;&gt;&lt;b&gt;Developer&lt;/b&gt;&lt;/font&gt;" style="text;html=1;align=center;verticalAlign=middle;whiteSpace=wrap;rounded=0;" vertex="1" parent="1">
          <mxGeometry x="267" y="-60" width="150" height="30" as="geometry" />
        </mxCell>
        <mxCell id="iPjWZaMH8rYA2JW9j5OT-12" value="&lt;font style=&quot;font-size: 20px;&quot;&gt;&lt;b&gt;Vercel&lt;/b&gt;&lt;/font&gt;&lt;div&gt;&lt;font style=&quot;font-size: 20px;&quot;&gt;&lt;b&gt;Next.js + TypeScript&lt;/b&gt;&lt;/font&gt;&lt;/div&gt;" style="text;html=1;align=center;verticalAlign=middle;whiteSpace=wrap;rounded=0;" vertex="1" parent="1">
          <mxGeometry x="224" y="340" width="226" height="30" as="geometry" />
        </mxCell>
        <mxCell id="iPjWZaMH8rYA2JW9j5OT-13" value="" style="image;html=1;image=img/lib/clip_art/networking/Cloud_Server_128x128.png" vertex="1" parent="1">
          <mxGeometry x="560" y="260" width="80" height="80" as="geometry" />
        </mxCell>
        <mxCell id="iPjWZaMH8rYA2JW9j5OT-14" value="" style="edgeStyle=orthogonalEdgeStyle;html=1;endArrow=block;elbow=vertical;startArrow=block;startFill=1;endFill=1;strokeColor=#545B64;rounded=0;" edge="1" parent="1">
          <mxGeometry width="100" relative="1" as="geometry">
            <mxPoint x="390" y="298.5" as="sourcePoint" />
            <mxPoint x="550" y="299" as="targetPoint" />
          </mxGeometry>
        </mxCell>
        <mxCell id="iPjWZaMH8rYA2JW9j5OT-15" value="&lt;span style=&quot;font-size: 20px;&quot;&gt;&lt;b&gt;AWS App Runner&lt;/b&gt;&lt;/span&gt;&lt;br&gt;&lt;div&gt;&lt;font style=&quot;font-size: 20px;&quot;&gt;&lt;b&gt;Hono + TypeScript&lt;/b&gt;&lt;/font&gt;&lt;/div&gt;" style="text;html=1;align=center;verticalAlign=middle;whiteSpace=wrap;rounded=0;" vertex="1" parent="1">
          <mxGeometry x="490" y="340" width="226" height="30" as="geometry" />
        </mxCell>
        <mxCell id="iPjWZaMH8rYA2JW9j5OT-16" value="" style="strokeWidth=2;html=1;shape=mxgraph.flowchart.database;whiteSpace=wrap;" vertex="1" parent="1">
          <mxGeometry x="560" y="490" width="60" height="60" as="geometry" />
        </mxCell>
        <mxCell id="iPjWZaMH8rYA2JW9j5OT-17" value="" style="edgeStyle=orthogonalEdgeStyle;html=1;endArrow=block;elbow=vertical;startArrow=block;startFill=1;endFill=1;strokeColor=#545B64;rounded=0;" edge="1" parent="1">
          <mxGeometry width="100" relative="1" as="geometry">
            <mxPoint x="590" y="480" as="sourcePoint" />
            <mxPoint x="590" y="390" as="targetPoint" />
          </mxGeometry>
        </mxCell>
        <mxCell id="iPjWZaMH8rYA2JW9j5OT-18" value="" style="edgeStyle=orthogonalEdgeStyle;html=1;endArrow=block;elbow=vertical;startArrow=block;startFill=1;endFill=1;strokeColor=#545B64;rounded=0;exitX=0;exitY=0.5;exitDx=0;exitDy=0;exitPerimeter=0;" edge="1" parent="1" source="iPjWZaMH8rYA2JW9j5OT-16">
          <mxGeometry width="100" relative="1" as="geometry">
            <mxPoint x="339.5" y="490" as="sourcePoint" />
            <mxPoint x="339.5" y="400" as="targetPoint" />
          </mxGeometry>
        </mxCell>
        <mxCell id="iPjWZaMH8rYA2JW9j5OT-19" value="&lt;font style=&quot;font-size: 20px;&quot;&gt;&lt;b&gt;User&lt;/b&gt;&lt;/font&gt;" style="text;html=1;align=center;verticalAlign=middle;whiteSpace=wrap;rounded=0;" vertex="1" parent="1">
          <mxGeometry x="84" y="338" width="150" height="30" as="geometry" />
        </mxCell>
        <mxCell id="iPjWZaMH8rYA2JW9j5OT-20" value="" style="edgeStyle=orthogonalEdgeStyle;html=1;endArrow=none;elbow=vertical;startArrow=block;startFill=1;strokeColor=#545B64;rounded=0;" edge="1" parent="1">
          <mxGeometry width="100" relative="1" as="geometry">
            <mxPoint x="540" y="120" as="sourcePoint" />
            <mxPoint x="342.2066666666668" y="60.5" as="targetPoint" />
            <Array as="points">
              <mxPoint x="341.75" y="102" />
              <mxPoint x="341.75" y="102" />
            </Array>
          </mxGeometry>
        </mxCell>
      </root>
    </mxGraphModel>
  </diagram>
</mxfile>
